#N canvas 404 24 1493 879 10;
#X text 662 13 Sintetizador - Marissa Chapman, f 32;
#X msg 60 79 67;
#X msg 105 78 69;
#X msg 149 79 71;
#X obj 61 132 mtof;
#X floatatom 60 168 5 0 0 0 - - -;
#X obj 62 207 osc~;
#X text 166 8 G mayor;
#X msg 195 78 72;
#X msg 244 77 74;
#X msg 290 77 76;
#X msg 339 77 78;
#X obj 450 785 dac~;
#X obj 455 132 * 3;
#X obj 732 130 * 4;
#X obj 359 205 phasor~;
#X obj 427 191 0;
#X obj 359 245 -~ 0.5;
#X obj 360 281 *~ 2;
#X obj 361 312 clip~ 0 1;
#X obj 480 184 *~ -1;
#X obj 479 205 phasor~;
#X obj 532 199 0;
#X obj 481 239 -~ 0.5;
#X obj 482 271 *~ 2;
#X obj 483 312 clip~ 0 1;
#X obj 531 157 bng 15 250 50 0 empty empty empty 17 7 0 10 -262144
-1 -1;
#X obj 382 361 +~;
#X obj 383 390 -~ 0.5;
#X obj 385 423 *~;
#X obj 63 325 *~;
#X obj 19 639 tabwrite~ seno;
#X obj 435 502 tabwrite~ triangulo;
#X obj 37 614 metro 50;
#X obj 440 471 metro 50;
#X obj 52 590 tgl 15 0 empty empty empty 17 7 0 10 -262144 -1 -1 1
1;
#X obj 446 448 tgl 15 0 empty empty empty 17 7 0 10 -262144 -1 -1 1
1;
#N canvas 0 22 450 278 (subpatch) 0;
#X array seno 100 float 5;
#A 0 0 0 0 0 0 0 0 0 0 0 0 0 0 0 0 0 0 0 0 0 0 0 0 0 0 0 0 0 0 0 0
0 0 0 0 0 0 0 0 0 0 0 0 0 0 0 0 0 0 0 0 0 0 0 0 0 0 0 0 0 0 0 0 0 0
0 0 0 0 0 0 0 0 0 0 0 0 0 0 0 0 0 0 0 0 0 0 0 0 0 0 0 0 0 0 0 0 0 0
0;
#X coords 0 1 99 -1 200 140 1;
#X restore 1275 57 graph;
#N canvas 0 22 450 278 (subpatch) 0;
#X array triangulo 100 float 3;
#A 0 0 0 0 0 0 0 0 0 0 0 0 0 0 0 0 0 0 0 0 0 0 0 0 0 0 0 0 0 0 0 0
0 0 0 0 0 0 0 0 0 0 0 0 0 0 0 0 0 0 0 0 0 0 0 0 0 0 0 0 0 0 0 0 0 0
0 0 0 0 0 0 0 0 0 0 0 0 0 0 0 0 0 0 0 0 0 0 0 0 0 0 0 0 0 0 0 0 0 0
0;
#X coords 0 1 100 -1 200 140 1;
#X restore 1275 213 graph;
#X obj 112 437 line~;
#X floatatom 112 415 5 0 0 0 - - -;
#X obj 113 392 \$1 20;
#X obj 79 367 hsl 128 15 0 1 0 0 empty empty empty -2 -8 0 10 -262144
-1 -1 0 1;
#X obj 483 427 line~;
#X floatatom 483 405 5 0 0 0 - - -;
#X obj 484 382 \$1 20;
#X obj 450 357 hsl 128 15 0 1 0 0 empty empty empty -2 -8 0 10 -262144
-1 -1 0 1;
#X obj 616 207 phasor~;
#X msg 681 181 0;
#X obj 616 237 -~ 0.5;
#X obj 753 184 *~ -1;
#X obj 754 207 phasor~;
#X obj 802 135 bng 15 250 50 0 empty empty empty 17 7 0 10 -262144
-1 -1;
#X obj 812 167 0.5;
#X obj 754 236 -~ 0.5;
#X obj 687 311 +~;
#X obj 687 360 *~;
#X obj 822 370 line~;
#X floatatom 825 347 5 0 0 0 - - -;
#X obj 825 321 \$1 20;
#X obj 794 297 hsl 128 15 0 1 0 0 empty empty empty -2 -8 0 10 -262144
-1 -1 800 1;
#X text 428 112 onda triangular en 5ta;
#X text 695 110 onda cuadrada en octava;
#X obj 750 420 metro 50;
#X obj 756 397 tgl 15 0 empty empty empty 17 7 0 10 -262144 -1 -1 1
1;
#X obj 745 450 tabwrite~ cuadrado;
#N canvas 0 22 450 278 (subpatch) 0;
#X array cuadrado 100 float 1;
#A 0 0.0220677 0.0261821 0.0354785 0.0281673 0.0303556 0.0396199 0.0374494
-0.0175125 -0.0261859 -0.0329728 -0.0376296 -0.0397641 -0.0386062 -0.0378858
-0.0296985 -0.0378851 -0.0391965 -0.0430859 0.0224703 0.0231202 0.0183952
0.0169353 0.0244287 0.0230331 0.0189869 0.0123609 0.0113737 0.0172471
-0.0392352 -0.0446353 -0.0481259 -0.0383857 -0.0337457 -0.0404086 -0.0433034
-0.0459336 -0.0487972 -0.0413098 -0.0357298 0.0325998 0.0406666 0.0484133
0.0534978 0.0518509 0.0563693 0.0595436 0.0587424 0.0619093 0.0556824
-0.00263845 -0.00653749 -0.00776391 -0.0119055 -0.0094761 -0.0140741
-0.010868 -0.0213754 -0.0174113 -0.0185074 -0.013578 0.043214 0.0368687
0.0375311 0.0344005 0.0406556 0.041619 0.0466105 0.0531305 0.0551853
0.0449139 -0.0244683 -0.0250835 -0.0238458 -0.0242747 -0.0181916 -0.0188299
-0.0218069 -0.0287104 -0.0316749 -0.0407444 -0.0373895 0.0247086 0.0168657
0.00983142 0.00885997 0.019139 0.0261275 0.0210722 0.0253299 0.0284265
0.0336438 -0.037712 -0.0277823 -0.0198845 -0.0183553 -0.0160418 -0.0206003
-0.0159265 -0.0093855 -0.00787665;
#X coords 0 1 99 -1 200 140 1;
#X restore 1276 370 graph;
#X text 97 206 onda simple;
#X obj 873 193 lop~;
#X floatatom 925 209 5 1000 20000 0 - - -;
#X obj 885 155 noise~;
#X text 27 79 G4;
#X msg 57 52 43;
#X msg 104 52 45;
#X msg 149 53 47;
#X msg 194 52 48;
#X msg 244 51 50;
#X msg 290 51 52;
#X msg 339 51 54;
#X text 27 53 G3;
#X text 879 124 síntesis sustractiva filtro pasa bajo;
#X text 305 112 síntesis aditiva ->;
#X obj 122 258 hsl 128 15 0 1 0 0 empty empty empty -2 -8 0 10 -262144
-1 -1 0 1;
#X floatatom 119 278 5 0 0 0 - - -;
#X obj 119 298 osc~;
#X text 455 342 amplitud triangulo;
#X text 800 280 amplitud cuadrado;
#X text 75 349 amplitud senoidal;
#X text 117 239 síntesis por amplitud modulada;
#X obj 57 528 *~;
#X obj 944 179 tgl 15 0 empty empty empty 17 7 0 10 -262144 -1 -1 1
1;
#X text 966 181 on/off filtro;
#X obj 94 235 tgl 15 0 empty empty empty 17 7 0 10 -262144 -1 -1 0
1;
#X obj 568 782 tabwrite~ suma;
#X obj 568 754 metro 50;
#X obj 567 731 tgl 15 0 empty empty empty 17 7 0 10 -262144 -1 -1 1
1;
#N canvas 0 22 450 278 (subpatch) 0;
#X array suma 100 float 5;
#A 0 0 0 0 0 0 0 0 0 0 0 0 0 0 0 0 0 0 0 0 0 0 0 0 0 0 0 0 0 0 0 0
0 0 0 0 0 0 0 0 0 0 0 0 0 0 0 0 0 0 0 0 0 0 0 0 0 0 0 0 0 0 0 0 0 0
0 0 0 0 0 0 0 0 0 0 0 0 0 0 0 0 0 0 0 0 0 0 0 0 0 0 0 0 0 0 0 0 0 0
0;
#X coords 0 1 99 -1 200 140 1;
#X restore 1273 528 graph;
#X obj 454 696 *~;
#X obj 654 723 line~;
#X floatatom 653 699 5 0 0 0 - - -;
#X obj 653 673 \$1 20;
#X obj 654 650 hsl 128 15 0 1 0 0 empty empty empty -2 -8 0 10 -262144
-1 -1 0 1;
#X text 653 631 amplitud general;
#X obj 513 674 line~;
#X obj 496 613 bng 15 250 50 0 empty empty empty 17 7 0 10 -262144
-1 -1;
#X msg 513 647 1 \, 0 2000;
#X text 62 35 G;
#X text 106 35 A;
#X text 150 36 B;
#X text 199 35 C;
#X text 249 35 D;
#X text 294 36 E;
#X text 340 35 F#;
#X text 513 630 rampa de tiempo;
#X obj 201 518 line~;
#X obj 192 453 bng 15 250 50 0 empty empty empty 17 7 0 10 -262144
-1 -1;
#X msg 201 491 1 \, 0 2000;
#X text 201 474 rampa de tiempo;
#X obj 567 454 line~;
#X obj 550 393 bng 15 250 50 0 empty empty empty 17 7 0 10 -262144
-1 -1;
#X msg 567 427 1 \, 0 2000;
#X text 567 410 rampa de tiempo;
#X obj 938 459 line~;
#X obj 921 398 bng 15 250 50 0 empty empty empty 17 7 0 10 -262144
-1 -1;
#X msg 938 432 1 \, 0 2000;
#X text 938 415 rampa de tiempo;
#X floatatom 432 160 5 0 0 0 - - -;
#X floatatom 697 151 5 0 0 0 - - -;
#X obj 453 638 -~ 0.5;
#X connect 1 0 4 0;
#X connect 2 0 4 0;
#X connect 3 0 4 0;
#X connect 4 0 5 0;
#X connect 5 0 6 0;
#X connect 5 0 13 0;
#X connect 5 0 14 0;
#X connect 5 0 104 0;
#X connect 5 0 115 0;
#X connect 6 0 30 0;
#X connect 8 0 4 0;
#X connect 9 0 4 0;
#X connect 10 0 4 0;
#X connect 11 0 4 0;
#X connect 13 0 126 0;
#X connect 14 0 127 0;
#X connect 15 0 17 0;
#X connect 16 0 15 1;
#X connect 17 0 18 0;
#X connect 18 0 19 0;
#X connect 19 0 27 0;
#X connect 20 0 21 0;
#X connect 21 0 23 0;
#X connect 22 0 21 1;
#X connect 23 0 24 0;
#X connect 24 0 25 0;
#X connect 25 0 27 1;
#X connect 26 0 16 0;
#X connect 26 0 22 0;
#X connect 27 0 28 0;
#X connect 28 0 29 0;
#X connect 29 0 32 0;
#X connect 29 0 128 0;
#X connect 30 0 89 0;
#X connect 33 0 31 0;
#X connect 34 0 32 0;
#X connect 35 0 33 0;
#X connect 36 0 34 0;
#X connect 39 0 89 1;
#X connect 40 0 39 0;
#X connect 41 0 40 0;
#X connect 42 0 41 0;
#X connect 43 0 29 1;
#X connect 44 0 43 0;
#X connect 45 0 44 0;
#X connect 46 0 45 0;
#X connect 46 0 119 0;
#X connect 47 0 49 0;
#X connect 48 0 47 1;
#X connect 49 0 55 0;
#X connect 50 0 51 0;
#X connect 51 0 54 0;
#X connect 52 0 48 0;
#X connect 52 0 53 0;
#X connect 53 0 51 1;
#X connect 54 0 55 1;
#X connect 55 0 56 0;
#X connect 56 0 65 0;
#X connect 56 0 128 0;
#X connect 57 0 56 1;
#X connect 58 0 57 0;
#X connect 59 0 58 0;
#X connect 60 0 59 0;
#X connect 60 0 123 0;
#X connect 63 0 65 0;
#X connect 64 0 63 0;
#X connect 68 0 56 0;
#X connect 69 0 68 1;
#X connect 70 0 68 0;
#X connect 72 0 4 0;
#X connect 73 0 4 0;
#X connect 74 0 4 0;
#X connect 75 0 4 0;
#X connect 76 0 4 0;
#X connect 77 0 4 0;
#X connect 78 0 4 0;
#X connect 82 0 83 0;
#X connect 83 0 84 0;
#X connect 84 0 30 1;
#X connect 89 0 31 0;
#X connect 89 0 128 0;
#X connect 90 0 69 0;
#X connect 92 0 82 0;
#X connect 94 0 93 0;
#X connect 95 0 94 0;
#X connect 97 0 93 0;
#X connect 97 0 12 0;
#X connect 97 0 12 1;
#X connect 98 0 97 1;
#X connect 99 0 98 0;
#X connect 100 0 99 0;
#X connect 101 0 100 0;
#X connect 103 0 97 1;
#X connect 104 0 105 0;
#X connect 105 0 103 0;
#X connect 114 0 89 1;
#X connect 115 0 116 0;
#X connect 116 0 114 0;
#X connect 118 0 29 1;
#X connect 119 0 120 0;
#X connect 120 0 118 0;
#X connect 122 0 56 1;
#X connect 123 0 124 0;
#X connect 124 0 122 0;
#X connect 126 0 15 0;
#X connect 126 0 20 0;
#X connect 126 0 119 0;
#X connect 126 0 26 0;
#X connect 127 0 47 0;
#X connect 127 0 50 0;
#X connect 127 0 52 0;
#X connect 128 0 97 0;
